<svg width="24" height="25" viewBox="0 0 24 25" fill="none" xmlns="http://www.w3.org/2000/svg">
<path fill-rule="evenodd" clip-rule="evenodd" d="M7 1.39062C6.0335 1.39062 5.25 2.17413 5.25 3.14062C5.25 3.83872 5.65876 4.44135 6.25 4.72222L6.25 6.69254C5.71181 6.85572 5.24023 7.11372 4.83944 7.52834C4.24211 8.14627 3.98615 8.92179 3.86609 9.84554C3.74997 10.739 3.74998 11.8765 3.75 13.294V13.294V13.294V13.294V13.401V13.401V13.401V13.401C3.74998 14.8186 3.74997 15.956 3.86609 16.8495C3.98615 17.7733 4.24211 18.5488 4.83944 19.1667C5.44022 19.7882 6.20002 20.0578 7.10487 20.1836C7.97352 20.3045 9.0773 20.3044 10.4435 20.3044H10.4435L11.5253 20.3044C11.7121 20.3034 12.1864 20.405 12.5893 20.8192C12.9061 21.1642 13.3205 21.579 13.778 21.9396C14.2234 22.2908 14.7696 22.639 15.3481 22.7788C15.6751 22.8578 16.0008 22.909 16.2975 22.8844C16.6124 22.8582 16.972 22.7368 17.2161 22.4003C17.4359 22.0972 17.465 21.747 17.4567 21.4894C17.4479 21.2198 17.1996 20.1161 17.1996 20.1161C17.8634 19.9679 18.6763 19.6677 19.1606 19.1667C19.7579 18.5488 20.0139 17.7733 20.1339 16.8495C20.25 15.956 20.25 14.8186 20.25 13.401V13.294C20.25 11.8765 20.25 10.739 20.1339 9.84554C20.0139 8.92179 19.7579 8.14627 19.1606 7.52834C18.7598 7.11372 18.2882 6.85572 17.75 6.69253V4.72222C18.3412 4.44135 18.75 3.83872 18.75 3.14062C18.75 2.17413 17.9665 1.39062 17 1.39062C16.0335 1.39062 15.25 2.17413 15.25 3.14062C15.25 3.83872 15.6588 4.44135 16.25 4.72222V6.44515C15.4984 6.39059 14.6047 6.39061 13.5565 6.39062H13.5565H13.5565L10.4435 6.39062H10.4435H10.4435H10.4435H10.4435H10.4434C9.39527 6.39061 8.50156 6.39059 7.75 6.44515V4.72222C8.34124 4.44135 8.75 3.83872 8.75 3.14062C8.75 2.17413 7.9665 1.39062 7 1.39062ZM10.0468 14.6273C9.76328 14.3253 9.28865 14.3103 8.98666 14.5938C8.68468 14.8773 8.6697 15.352 8.95321 15.654C9.67996 16.4281 10.7934 16.8906 12 16.8906C13.2066 16.8906 14.32 16.4281 15.0468 15.654C15.3303 15.352 15.3153 14.8773 15.0133 14.5938C14.7114 14.3103 14.2367 14.3253 13.9532 14.6273C13.5398 15.0676 12.838 15.3906 12 15.3906C11.162 15.3906 10.4602 15.0676 10.0468 14.6273ZM8 11.1406C8 10.5883 8.44572 10.1406 8.99554 10.1406H9.00446C9.55428 10.1406 10 10.5883 10 11.1406C10 11.6929 9.55428 12.1406 9.00446 12.1406H8.99554C8.44572 12.1406 8 11.6929 8 11.1406ZM14.9955 10.1406C14.4457 10.1406 14 10.5883 14 11.1406C14 11.6929 14.4457 12.1406 14.9955 12.1406H15.0045C15.5543 12.1406 16 11.6929 16 11.1406C16 10.5883 15.5543 10.1406 15.0045 10.1406H14.9955Z" fill="primary"/>
<path d="M1.25 13.6403C1.25 12.683 1.73922 11.8399 2.4813 11.3474C2.68651 11.2112 2.78911 11.1431 2.89456 11.1997C3 11.2562 3 11.392 3 11.6634V15.6172C3 15.8887 3 16.0244 2.89456 16.081C2.78911 16.1376 2.68651 16.0695 2.4813 15.9333C1.73922 15.4408 1.25 14.5977 1.25 13.6403Z" fill="primary"/>
<path d="M21.2666 11.2004C22.148 11.6586 22.75 12.58 22.75 13.642C22.75 14.704 22.148 15.6255 21.2666 16.0836C21.1416 16.1486 21 16.0525 21 15.9117V11.3723C21 11.2315 21.1416 11.1355 21.2666 11.2004Z" fill="primary"/>
</svg>
