<svg width="24" height="25" viewBox="0 0 24 25" fill="none" xmlns="http://www.w3.org/2000/svg">
<path fill-rule="evenodd" clip-rule="evenodd" d="M14.1393 2.01213L14.0878 2.0005C13.587 1.88734 13.1255 1.78304 12.7276 1.7692C12.2678 1.75319 11.8423 1.8535 11.4459 2.1714C11.0304 2.50462 10.8501 2.93801 10.7705 3.41492C10.6991 3.8431 10.6992 4.37504 10.6992 4.9768L10.6992 5.02866L10.6992 11.7844C10.6992 12.2559 10.6992 12.4916 10.8457 12.638C10.9921 12.7844 11.2278 12.7844 11.6992 12.7844L19.5155 12.7844L19.5703 12.7845H19.5703C20.169 12.7845 20.7044 12.7846 21.1362 12.7063C21.625 12.6177 22.0581 12.4169 22.3841 11.9738C22.6898 11.5582 22.7823 11.1287 22.7399 10.6613C22.7041 10.2666 22.5673 9.82346 22.4231 9.35659L22.4067 9.30331C21.2926 5.69098 18.1071 2.90796 14.1393 2.01213ZM8.558 7.74023C5.735 7.74023 3.33203 9.68237 3.33203 12.2036C3.33203 12.5251 3.61033 12.7858 3.95362 12.7858L8.558 12.7858C8.9013 12.7858 9.17959 12.5251 9.17959 12.2036L9.17959 8.32241C9.17959 8.00088 8.9013 7.74023 8.558 7.74023ZM4.36988 14.2871L4.30959 14.2871H4.30957C3.73301 14.287 3.20147 14.2869 2.77066 14.3749C2.26481 14.4783 1.84535 14.7109 1.54563 15.1751C1.27496 15.5942 1.19287 16.0033 1.2882 16.4473C1.36536 16.8067 1.56136 17.1764 1.7523 17.5367L1.77913 17.5873C2.96218 19.8221 5.55833 21.3369 8.52738 21.3369C8.88782 21.3369 9.18001 21.0584 9.18001 20.7149L9.18001 14.9092C9.18001 14.7442 9.11125 14.586 8.98886 14.4693C8.86647 14.3527 8.70047 14.2871 8.52738 14.2871L4.36988 14.2871ZM10.6992 14.9337C10.6992 14.5766 10.9881 14.2871 11.3445 14.2871L19.9483 14.2871C20.3047 14.2871 20.5936 14.5766 20.5936 14.9337C20.5936 18.7551 17.806 21.9245 14.068 22.9692L14.0168 22.9835L14.0167 22.9835C13.5511 23.1137 13.114 23.236 12.7293 23.2634C12.2777 23.2957 11.8618 23.203 11.4645 22.9007C11.0432 22.5803 10.8555 22.1576 10.7727 21.6852C10.6991 21.2653 10.6992 20.7442 10.6992 20.1588L10.6992 20.1065L10.6992 14.9337Z" fill="white"/>
</svg>
