<svg width="22" height="22" viewBox="0 0 22 22" fill="none" xmlns="http://www.w3.org/2000/svg">
<path fill-rule="evenodd" clip-rule="evenodd" d="M6 0.390625C5.0335 0.390625 4.25 1.17413 4.25 2.14062C4.25 2.83872 4.65876 3.44135 5.25 3.72222L5.25 5.69254C4.71181 5.85572 4.24023 6.11372 3.83944 6.52834C3.24211 7.14627 2.98615 7.92179 2.86609 8.84554C2.74997 9.73902 2.74998 10.8765 2.75 12.294V12.294V12.294V12.294V12.401V12.401V12.401V12.401C2.74998 13.8186 2.74997 14.956 2.86609 15.8495C2.98615 16.7733 3.24211 17.5488 3.83944 18.1667C4.44022 18.7882 5.20002 19.0578 6.10487 19.1836C6.97352 19.3045 8.0773 19.3044 9.4435 19.3044H9.44352L10.5253 19.3044C10.7121 19.3034 11.1864 19.405 11.5893 19.8192C11.9061 20.1642 12.3205 20.579 12.778 20.9396C13.2234 21.2908 13.7696 21.639 14.3481 21.7788C14.6751 21.8578 15.0008 21.909 15.2975 21.8844C15.6124 21.8582 15.972 21.7368 16.2161 21.4003C16.4359 21.0972 16.465 20.747 16.4567 20.4894C16.4479 20.2198 16.1996 19.1161 16.1996 19.1161C16.8634 18.9679 17.6763 18.6677 18.1606 18.1667C18.7579 17.5488 19.0139 16.7733 19.1339 15.8495C19.25 14.956 19.25 13.8186 19.25 12.401V12.294C19.25 10.8765 19.25 9.73903 19.1339 8.84554C19.0139 7.92179 18.7579 7.14627 18.1606 6.52834C17.7598 6.11372 17.2882 5.85572 16.75 5.69253V3.72222C17.3412 3.44135 17.75 2.83872 17.75 2.14062C17.75 1.17413 16.9665 0.390625 16 0.390625C15.0335 0.390625 14.25 1.17413 14.25 2.14062C14.25 2.83872 14.6588 3.44135 15.25 3.72222L15.25 5.44515C14.4984 5.39059 13.6047 5.39061 12.5565 5.39062H12.5565H12.5565L9.44352 5.39062H9.4435H9.44349H9.44345H9.44345H9.44345C8.39527 5.39061 7.50156 5.39059 6.75 5.44515V3.72222C7.34124 3.44135 7.75 2.83872 7.75 2.14062C7.75 1.17413 6.9665 0.390625 6 0.390625ZM9.04679 13.6273C8.76328 13.3253 8.28865 13.3103 7.98666 13.5938C7.68468 13.8773 7.6697 14.352 7.95321 14.654C8.67996 15.4281 9.79341 15.8906 11 15.8906C12.2066 15.8906 13.32 15.4281 14.0468 14.654C14.3303 14.352 14.3153 13.8773 14.0133 13.5938C13.7114 13.3103 13.2367 13.3253 12.9532 13.6273C12.5398 14.0676 11.838 14.3906 11 14.3906C10.162 14.3906 9.4602 14.0676 9.04679 13.6273ZM7 10.1406C7 9.58834 7.44572 9.14062 7.99554 9.14062H8.00446C8.55428 9.14062 9 9.58834 9 10.1406C9 10.6929 8.55428 11.1406 8.00446 11.1406H7.99554C7.44572 11.1406 7 10.6929 7 10.1406ZM13.9955 9.14062C13.4457 9.14062 13 9.58834 13 10.1406C13 10.6929 13.4457 11.1406 13.9955 11.1406H14.0045C14.5543 11.1406 15 10.6929 15 10.1406C15 9.58834 14.5543 9.14062 14.0045 9.14062H13.9955Z" fill="#0234D9"/>
<path d="M0.25 12.6403C0.25 11.683 0.739216 10.8399 1.4813 10.3474C1.68651 10.2112 1.78911 10.1431 1.89456 10.1997C2 10.2562 2 10.392 2 10.6634V14.6172C2 14.8887 2 15.0244 1.89456 15.081C1.78911 15.1376 1.68651 15.0695 1.4813 14.9333C0.739216 14.4408 0.25 13.5977 0.25 12.6403Z" fill="#0234D9"/>
<path d="M20.2666 10.2004C21.148 10.6586 21.75 11.58 21.75 12.642C21.75 13.704 21.148 14.6255 20.2666 15.0836C20.1416 15.1486 20 15.0525 20 14.9117V10.3723C20 10.2315 20.1416 10.1355 20.2666 10.2004Z" fill="#0234D9"/>
</svg>
