<svg width="24" height="25" viewBox="0 0 24 25" fill="none" xmlns="http://www.w3.org/2000/svg">
<path fill-rule="evenodd" clip-rule="evenodd" d="M13.6814 1.39063H13.6814H13.6814C15.5192 1.39061 16.9748 1.3906 18.114 1.54376C19.2864 1.70139 20.2354 2.03351 20.9838 2.78187C21.7321 3.53023 22.0642 4.47918 22.2219 5.6516C22.375 6.79081 22.375 8.24643 22.375 10.0842V10.0842V14.197V14.1971C22.375 16.0348 22.375 17.4904 22.2219 18.6296C22.0642 19.8021 21.7321 20.751 20.9838 21.4994C20.2354 22.2477 19.2864 22.5799 18.114 22.7375C16.9748 22.8907 15.5192 22.8906 13.6815 22.8906H13.6814H12.0686H12.0685C10.2308 22.8906 8.77518 22.8907 7.63598 22.7375C6.46356 22.5799 5.51461 22.2477 4.76624 21.4994C4.12977 20.8629 3.79438 20.0814 3.61135 19.1406H2.625C2.07272 19.1406 1.625 18.6929 1.625 18.1406C1.625 17.5883 2.07272 17.1406 2.625 17.1406H3.40942C3.37498 16.2909 3.37499 15.3146 3.375 14.1971V14.1971V14.197L3.375 13.1406H2.625C2.07272 13.1406 1.625 12.6929 1.625 12.1406C1.625 11.5883 2.07272 11.1406 2.625 11.1406H3.375L3.375 10.0842V10.0842V10.0842C3.37499 8.96661 3.37498 7.99035 3.40942 7.14063H2.625C2.07272 7.14063 1.625 6.69291 1.625 6.14063C1.625 5.58834 2.07272 5.14063 2.625 5.14063H3.61135C3.79438 4.1999 4.12977 3.41834 4.76624 2.78187C5.51461 2.03351 6.46356 1.70139 7.63598 1.54376C8.77519 1.3906 10.2308 1.39061 12.0686 1.39063H12.0686H12.0686H12.0686L13.6814 1.39063H13.6814ZM13.125 6.39063C11.6062 6.39063 10.375 7.62184 10.375 9.14063C10.375 10.6594 11.6062 11.8906 13.125 11.8906C14.6438 11.8906 15.875 10.6594 15.875 9.14063C15.875 7.62184 14.6438 6.39063 13.125 6.39063ZM15.9525 13.6794C14.2254 12.6277 12.0248 12.6277 10.2977 13.6794C9.98767 13.8576 9.28167 14.2647 8.91092 14.6358C8.67559 14.8714 8.42754 15.2058 8.38226 15.6293C8.33367 16.084 8.53165 16.5017 8.89346 16.8542C9.44058 17.3873 10.1722 17.8906 11.1655 17.8906H15.0847C16.078 17.8906 16.8096 17.3873 17.3567 16.8542C17.7185 16.5017 17.9165 16.084 17.8679 15.6293C17.8227 15.2058 17.5746 14.8714 17.3393 14.6358C16.9685 14.2647 16.2625 13.8576 15.9525 13.6794Z" fill="white"/>
</svg>
