<svg width="20" height="20" viewBox="0 0 20 20" fill="none" xmlns="http://www.w3.org/2000/svg">
<path fill-rule="evenodd" clip-rule="evenodd" d="M19.3571 5.23339L19.3571 5.17179V5.17177C19.3572 4.34226 19.3572 3.62754 19.2803 3.05519C19.1978 2.44179 19.0118 1.85382 18.5349 1.37691C18.058 0.899997 17.47 0.714023 16.8566 0.631555C16.2843 0.554603 15.5696 0.554643 14.74 0.55469L14.6784 0.554692L5.25944 0.55469C4.42992 0.554643 3.71519 0.554603 3.14283 0.631554C2.52944 0.714023 1.94147 0.899996 1.46456 1.37691C0.987644 1.85382 0.801671 2.44179 0.719202 3.05518C0.642251 3.62754 0.64229 4.34228 0.642337 5.17181L0.642336 10.9094C0.64229 11.7389 0.642251 12.4537 0.719201 13.026C0.801671 13.6394 0.987643 14.2274 1.46456 14.7043C1.94147 15.1812 2.52944 15.3672 3.14283 15.4497C3.71519 15.5266 4.42992 15.5266 5.25944 15.5265L8.1287 15.5265L6.44449 17.7721C6.13442 18.1856 6.2182 18.7721 6.63164 19.0822C7.04508 19.3923 7.6316 19.3085 7.94168 18.895L10.0003 16.1502L12.0589 18.895C12.369 19.3085 12.9555 19.3923 13.369 19.0822C13.7824 18.7721 13.8662 18.1856 13.5561 17.7721L11.8719 15.5265L14.74 15.5265C15.5695 15.5266 16.2843 15.5266 16.8566 15.4497C17.47 15.3672 18.058 15.1812 18.5349 14.7043C19.0118 14.2274 19.1978 13.6394 19.2803 13.026C19.3572 12.4537 19.3572 11.739 19.3571 10.9095V10.9094L19.3571 5.23339ZM13.7439 4.29766C14.2607 4.29766 14.6796 4.7166 14.6796 5.2334L14.6796 10.8478C14.6796 11.3646 14.2607 11.7836 13.7439 11.7836C13.2271 11.7836 12.8082 11.3646 12.8082 10.8478L12.8082 5.2334C12.8082 4.7166 13.2271 4.29766 13.7439 4.29766ZM10.0017 6.16875C10.5185 6.16875 10.9374 6.5877 10.9374 7.10449L10.9374 10.8475C10.9374 11.3642 10.5185 11.7832 10.0017 11.7832C9.48491 11.7832 9.06597 11.3642 9.06597 10.8475L9.06597 7.10449C9.06597 6.5877 9.48491 6.16875 10.0017 6.16875ZM7.19526 8.04102C7.19526 7.52422 6.77632 7.10528 6.25952 7.10528C5.74273 7.10528 5.32378 7.52422 5.32378 8.04102V10.8482C5.32378 11.365 5.74273 11.784 6.25952 11.784C6.77632 11.784 7.19526 11.365 7.19526 10.8482L7.19526 8.04102Z" fill="white"/>
</svg>
