<svg width="48" height="49" viewBox="0 0 48 49" fill="none" xmlns="http://www.w3.org/2000/svg">
<rect y="0.140625" width="48" height="48" rx="24" fill="white"/>
<path fill-rule="evenodd" clip-rule="evenodd" d="M19 13.3906C18.0335 13.3906 17.25 14.1741 17.25 15.1406C17.25 15.8387 17.6588 16.4414 18.25 16.7222V18.6925C17.7118 18.8557 17.2402 19.1137 16.8394 19.5283C16.2421 20.1463 15.9861 20.9218 15.8661 21.8455C15.75 22.739 15.75 23.8765 15.75 25.294V25.294V25.294V25.294V25.401V25.401V25.401V25.401C15.75 26.8186 15.75 27.956 15.8661 28.8495C15.9861 29.7733 16.2421 30.5488 16.8394 31.1667C17.4402 31.7882 18.2 32.0578 19.1049 32.1836C19.9735 32.3045 21.0773 32.3044 22.4435 32.3044H22.4435H23.5253C23.7121 32.3034 24.1864 32.405 24.5893 32.8192C24.9061 33.1642 25.3205 33.579 25.778 33.9396C26.2234 34.2908 26.7696 34.639 27.3481 34.7788C27.6751 34.8578 28.0008 34.909 28.2975 34.8844C28.6124 34.8582 28.972 34.7368 29.2161 34.4003C29.4359 34.0972 29.465 33.747 29.4567 33.4894C29.4479 33.2198 29.1996 32.1161 29.1996 32.1161C29.8634 31.9679 30.6763 31.6677 31.1606 31.1667C31.7579 30.5488 32.0139 29.7733 32.1339 28.8495C32.25 27.956 32.25 26.8186 32.25 25.401V25.294C32.25 23.8765 32.25 22.739 32.1339 21.8455C32.0139 20.9218 31.7579 20.1463 31.1606 19.5283C30.7598 19.1137 30.2882 18.8557 29.75 18.6925V16.7222C30.3412 16.4414 30.75 15.8387 30.75 15.1406C30.75 14.1741 29.9665 13.3906 29 13.3906C28.0335 13.3906 27.25 14.1741 27.25 15.1406C27.25 15.8387 27.6588 16.4414 28.25 16.7222V18.4452C27.4984 18.3906 26.6047 18.3906 25.5565 18.3906H25.5565H25.5565L22.4435 18.3906H22.4435H22.4435H22.4435H22.4435H22.4434C21.3953 18.3906 20.5016 18.3906 19.75 18.4452V16.7222C20.3412 16.4414 20.75 15.8387 20.75 15.1406C20.75 14.1741 19.9665 13.3906 19 13.3906ZM22.0468 26.6273C21.7633 26.3253 21.2886 26.3103 20.9867 26.5938C20.6847 26.8773 20.6697 27.352 20.9532 27.654C21.68 28.4281 22.7934 28.8906 24 28.8906C25.2066 28.8906 26.32 28.4281 27.0468 27.654C27.3303 27.352 27.3153 26.8773 27.0133 26.5938C26.7114 26.3103 26.2367 26.3253 25.9532 26.6273C25.5398 27.0676 24.838 27.3906 24 27.3906C23.162 27.3906 22.4602 27.0676 22.0468 26.6273ZM20 23.1406C20 22.5883 20.4457 22.1406 20.9955 22.1406H21.0045C21.5543 22.1406 22 22.5883 22 23.1406C22 23.6929 21.5543 24.1406 21.0045 24.1406H20.9955C20.4457 24.1406 20 23.6929 20 23.1406ZM26.9955 22.1406C26.4457 22.1406 26 22.5883 26 23.1406C26 23.6929 26.4457 24.1406 26.9955 24.1406H27.0045C27.5543 24.1406 28 23.6929 28 23.1406C28 22.5883 27.5543 22.1406 27.0045 22.1406H26.9955Z" fill="primary"/>
<path d="M13.25 25.6403C13.25 24.683 13.7392 23.8399 14.4813 23.3474C14.6865 23.2112 14.7891 23.1431 14.8946 23.1997C15 23.2562 15 23.392 15 23.6634V27.6172C15 27.8887 15 28.0244 14.8946 28.081C14.7891 28.1376 14.6865 28.0695 14.4813 27.9333C13.7392 27.4408 13.25 26.5977 13.25 25.6403Z" fill="primary"/>
<path d="M33.2666 23.2004C34.148 23.6586 34.75 24.58 34.75 25.642C34.75 26.704 34.148 27.6255 33.2666 28.0836C33.1416 28.1486 33 28.0525 33 27.9117V23.3723C33 23.2315 33.1416 23.1355 33.2666 23.2004Z" fill="primary"/>
</svg>
