<svg width="24" height="25" viewBox="0 0 24 25" fill="none" xmlns="http://www.w3.org/2000/svg">
<path fill-rule="evenodd" clip-rule="evenodd" d="M12 2.20117C6.47715 2.20117 2 6.67832 2 12.2012V19.2104C2 21.8078 5.07633 23.1778 7.00689 21.4403L7.65579 20.8563C7.9614 20.5813 8.40422 20.5213 8.77197 20.7052L10.6584 21.6484C11.5029 22.0707 12.4971 22.0707 13.3416 21.6484L15.228 20.7052C15.5958 20.5213 16.0386 20.5813 16.3442 20.8563L16.9931 21.4403C18.9237 23.1778 22 21.8078 22 19.2104V12.2012C22 6.67832 17.5228 2.20117 12 2.20117ZM8.79957 13.6006C8.46788 13.159 7.84101 13.0699 7.39942 13.4016C6.95783 13.7333 6.86874 14.3602 7.20043 14.8017C8.29339 16.2568 10.0367 17.2012 12.0004 17.2012C13.964 17.2012 15.7073 16.2568 16.8003 14.8017C17.132 14.3602 17.0429 13.7333 16.6013 13.4016C16.1597 13.0699 15.5329 13.159 15.2012 13.6006C14.4697 14.5744 13.3084 15.2012 12.0004 15.2012C10.6924 15.2012 9.53103 14.5744 8.79957 13.6006ZM9 9.20117C9.55228 9.20117 10 9.64889 10 10.2012V10.2124C10 10.7647 9.55228 11.2124 9 11.2124C8.44772 11.2124 8 10.7647 8 10.2124V10.2012C8 9.64889 8.44772 9.20117 9 9.20117ZM16 10.2012C16 9.64889 15.5523 9.20117 15 9.20117C14.4477 9.20117 14 9.64889 14 10.2012V10.2124C14 10.7647 14.4477 11.2124 15 11.2124C15.5523 11.2124 16 10.7647 16 10.2124V10.2012Z" fill="white"/>
</svg>
