<svg width="16" height="22" viewBox="0 0 16 22" fill="none" xmlns="http://www.w3.org/2000/svg">
<path fill-rule="evenodd" clip-rule="evenodd" d="M3.06024 3.3697C3.96477 2.02159 5.52803 0.599609 8.00001 0.599609C10.472 0.599609 12.0353 2.0216 12.9398 3.3697C13.8317 4.69902 14.1623 6.0569 14.2099 6.26513C14.2166 6.29443 14.2214 6.31883 14.2247 6.33561L15.8208 14.5656C16.1942 16.4911 14.7193 18.2796 12.7579 18.2796H3.24216C1.28072 18.2796 -0.194212 16.4912 0.179231 14.5656L1.77535 6.33561C1.7786 6.31883 1.78342 6.29443 1.79012 6.26513C1.83777 6.0569 2.16832 4.69902 3.06024 3.3697Z" fill="#0234D9"/>
<path d="M4.37427 19.3203C4.63632 19.8202 5.0376 20.3428 5.64605 20.7422C6.2802 21.1585 7.07766 21.4003 8.04847 21.4003C9.01929 21.4003 9.81675 21.1585 10.4509 20.7422C11.0593 20.3428 11.4606 19.8202 11.7227 19.3203H4.37427Z" fill="#0234D9"/>
</svg>
