<svg width="24" height="25" viewBox="0 0 24 25" fill="none" xmlns="http://www.w3.org/2000/svg">
<path fill-rule="evenodd" clip-rule="evenodd" d="M4.80156 20.318V4.71797H4.50156C4.26287 4.71797 4.03395 4.62315 3.86517 4.45436C3.69638 4.28558 3.60156 4.05666 3.60156 3.81797C3.60156 3.57927 3.69638 3.35036 3.86517 3.18157C4.03395 3.01279 4.26287 2.91797 4.50156 2.91797H19.5016C19.7403 2.91797 19.9692 3.01279 20.138 3.18157C20.3067 3.35036 20.4016 3.57927 20.4016 3.81797C20.4016 4.05666 20.3067 4.28558 20.138 4.45436C19.9692 4.62315 19.7403 4.71797 19.5016 4.71797H19.2016V20.318H19.5016C19.7403 20.318 19.9692 20.4128 20.138 20.5816C20.3067 20.7504 20.4016 20.9793 20.4016 21.218C20.4016 21.4567 20.3067 21.6856 20.138 21.8544C19.9692 22.0231 19.7403 22.118 19.5016 22.118H15.3016C15.0629 22.118 14.834 22.0231 14.6652 21.8544C14.4964 21.6856 14.4016 21.4567 14.4016 21.218V18.218C14.4016 17.9793 14.3067 17.7504 14.138 17.5816C13.9692 17.4128 13.7403 17.318 13.5016 17.318H10.5016C10.2629 17.318 10.0339 17.4128 9.86517 17.5816C9.69638 17.7504 9.60156 17.9793 9.60156 18.218V21.218C9.60156 21.4567 9.50674 21.6856 9.33796 21.8544C9.16918 22.0231 8.94026 22.118 8.70156 22.118H4.50156C4.26287 22.118 4.03395 22.0231 3.86517 21.8544C3.69638 21.6856 3.60156 21.4567 3.60156 21.218C3.60156 20.9793 3.69638 20.7504 3.86517 20.5816C4.03395 20.4128 4.26287 20.318 4.50156 20.318H4.80156ZM8.40156 7.11797C8.40156 6.95884 8.46478 6.80623 8.5773 6.6937C8.68982 6.58118 8.84243 6.51797 9.00156 6.51797H10.2016C10.3607 6.51797 10.5133 6.58118 10.6258 6.6937C10.7383 6.80623 10.8016 6.95884 10.8016 7.11797V8.31797C10.8016 8.4771 10.7383 8.62971 10.6258 8.74223C10.5133 8.85475 10.3607 8.91797 10.2016 8.91797H9.00156C8.84243 8.91797 8.68982 8.85475 8.5773 8.74223C8.46478 8.62971 8.40156 8.4771 8.40156 8.31797V7.11797ZM9.00156 11.318C8.84243 11.318 8.68982 11.3812 8.5773 11.4937C8.46478 11.6062 8.40156 11.7588 8.40156 11.918V13.118C8.40156 13.2771 8.46478 13.4297 8.5773 13.5422C8.68982 13.6548 8.84243 13.718 9.00156 13.718H10.2016C10.3607 13.718 10.5133 13.6548 10.6258 13.5422C10.7383 13.4297 10.8016 13.2771 10.8016 13.118V11.918C10.8016 11.7588 10.7383 11.6062 10.6258 11.4937C10.5133 11.3812 10.3607 11.318 10.2016 11.318H9.00156ZM13.2016 7.11797C13.2016 6.95884 13.2648 6.80623 13.3773 6.6937C13.4898 6.58118 13.6424 6.51797 13.8016 6.51797H15.0016C15.1607 6.51797 15.3133 6.58118 15.4258 6.6937C15.5383 6.80623 15.6016 6.95884 15.6016 7.11797V8.31797C15.6016 8.4771 15.5383 8.62971 15.4258 8.74223C15.3133 8.85475 15.1607 8.91797 15.0016 8.91797H13.8016C13.6424 8.91797 13.4898 8.85475 13.3773 8.74223C13.2648 8.62971 13.2016 8.4771 13.2016 8.31797V7.11797ZM13.8016 11.318C13.6424 11.318 13.4898 11.3812 13.3773 11.4937C13.2648 11.6062 13.2016 11.7588 13.2016 11.918V13.118C13.2016 13.2771 13.2648 13.4297 13.3773 13.5422C13.4898 13.6548 13.6424 13.718 13.8016 13.718H15.0016C15.1607 13.718 15.3133 13.6548 15.4258 13.5422C15.5383 13.4297 15.6016 13.2771 15.6016 13.118V11.918C15.6016 11.7588 15.5383 11.6062 15.4258 11.4937C15.3133 11.3812 15.1607 11.318 15.0016 11.318H13.8016Z" fill="white"/>
</svg>
