<svg width="24" height="25" viewBox="0 0 24 25" fill="none" xmlns="http://www.w3.org/2000/svg">
<path fill-rule="evenodd" clip-rule="evenodd" d="M14.92 2.92743C12.967 2.87836 11.033 2.87836 9.07999 2.92742L9.02182 2.92888C7.497 2.96717 6.27002 2.99798 5.2867 3.16923C4.2572 3.34852 3.42048 3.6924 2.71362 4.40195C2.00971 5.10853 1.66764 5.93322 1.49176 6.94603C1.32429 7.9104 1.29878 9.10743 1.26719 10.5903L1.26593 10.649C1.24469 11.6454 1.24469 12.6359 1.26594 13.6322L1.26719 13.691C1.29879 15.1738 1.32429 16.3709 1.49176 17.3352C1.66764 18.348 2.00972 19.1727 2.71362 19.8793C3.42048 20.5889 4.2572 20.9327 5.2867 21.112C6.27001 21.2833 7.49697 21.3141 9.02177 21.3524L9.07999 21.3538C11.033 21.4029 12.967 21.4029 14.92 21.3538L14.9782 21.3524C16.503 21.3141 17.73 21.2833 18.7133 21.112C19.7428 20.9327 20.5795 20.5889 21.2864 19.8793C21.9903 19.1727 22.3324 18.348 22.5082 17.3352C22.6757 16.3708 22.7012 15.1738 22.7328 13.691L22.7341 13.6322C22.7553 12.6359 22.7553 11.6454 22.7341 10.649L22.7328 10.5903C22.7012 9.10745 22.6757 7.91042 22.5082 6.94604C22.3324 5.93324 21.9903 5.10855 21.2864 4.40197C20.5795 3.69241 19.7428 3.34853 18.7133 3.16924C17.73 2.99799 16.503 2.96718 14.9782 2.92889L14.92 2.92743ZM7.38182 7.99514C7.02527 7.78433 6.56533 7.90248 6.35452 8.25904C6.14371 8.61559 6.26186 9.07554 6.61841 9.28635L9.56043 11.0258C10.4313 11.5407 11.1827 11.8907 12.0001 11.8907C12.8175 11.8907 13.569 11.5407 14.4398 11.0258L17.3818 9.28635C17.7384 9.07554 17.8565 8.61559 17.6457 8.25904C17.4349 7.90248 16.975 7.78433 16.6184 7.99514L13.6764 9.73457C12.832 10.2338 12.3831 10.3907 12.0001 10.3907C11.6171 10.3907 11.1682 10.2338 10.3238 9.73457L7.38182 7.99514Z" fill="white"/>
</svg>
