<svg width="24" height="25" viewBox="0 0 24 25" fill="none" xmlns="http://www.w3.org/2000/svg">
<path fill-rule="evenodd" clip-rule="evenodd" d="M16.1627 5.0757C15.5539 6.32169 15.15 8.11106 15.15 10.1406C15.15 12.1702 15.5539 13.9596 16.1627 15.2056C16.7999 16.5097 17.5043 16.9462 18 16.9462C18.4957 16.9462 19.2001 16.5097 19.8373 15.2056C20.4461 13.9596 20.85 12.1702 20.85 10.1406C20.85 8.11106 20.4461 6.32169 19.8373 5.0757C19.2001 3.77155 18.4957 3.33507 18 3.33507C17.5043 3.33507 16.7999 3.77155 16.1627 5.0757ZM14.4633 4.20611C15.2014 2.69526 16.397 1.39062 18 1.39062C19.603 1.39062 20.7986 2.69526 21.5367 4.20611C22.3033 5.77512 22.75 7.87465 22.75 10.1406C22.75 12.4066 22.3033 14.5061 21.5367 16.0751C20.7986 17.586 19.603 18.8906 18 18.8906C16.397 18.8906 15.2014 17.586 14.4633 16.0751C13.6967 14.5061 13.25 12.4066 13.25 10.1406C13.25 7.87465 13.6967 5.77512 14.4633 4.20611Z" fill="white"/>
<path d="M11.3805 2.79899C13.8327 2.02179 16.3184 1.39062 18 1.39062C18.4142 1.39062 18.75 1.72641 18.75 2.14062C18.75 2.55484 18.4142 2.89062 18 2.89062C17.3326 2.89062 16.5264 3.45119 15.8424 4.81918C15.1808 6.14231 14.75 8.02267 14.75 10.1406C14.75 12.2586 15.1808 14.1389 15.8424 15.4621C16.5264 16.8301 17.3326 17.3906 18 17.3906C18.4142 17.3906 18.75 17.7264 18.75 18.1406C18.75 18.5548 18.4142 18.8906 18 18.8906C16.3184 18.8906 13.8327 18.2595 11.3805 17.4823C8.89814 16.6955 6.34768 15.7246 4.49275 14.9834C2.50639 14.1896 1.25 12.2583 1.25 10.1406C1.25 8.02293 2.50639 6.09162 4.49275 5.29789C6.34768 4.55668 8.89814 3.58577 11.3805 2.79899Z" fill="white"/>
<path fill-rule="evenodd" clip-rule="evenodd" d="M6.1684 13.8983C6.7165 13.9662 7.10578 14.4656 7.03789 15.0137C6.78879 17.0248 7.78488 18.9794 9.53898 19.945L11.4822 21.0147C11.9661 21.281 12.1424 21.8891 11.8761 22.373C11.6097 22.8568 11.0016 23.0331 10.5178 22.7668L8.57452 21.6971C6.09707 20.3333 4.7043 17.5835 5.05306 14.7678C5.12095 14.2197 5.6203 13.8304 6.1684 13.8983Z" fill="white"/>
</svg>
