<svg width="24" height="23" viewBox="0 0 24 23" fill="none" xmlns="http://www.w3.org/2000/svg">
<path d="M15.7299 11.3295C18.3032 11.3295 20.3918 9.24103 20.3918 6.6677C20.3918 4.09436 18.3032 2.00586 15.7299 2.00586C13.1566 2.00586 11.0681 4.09436 11.0681 6.6677C11.0681 9.24103 13.1566 11.3295 15.7299 11.3295ZM20.8113 16.5508C20.4477 16.1778 19.9908 15.9914 19.4594 15.9914H12.9328L10.9935 15.3107L11.3012 14.4343L12.9328 15.059H15.5434C15.8698 15.059 16.1308 14.9285 16.3453 14.714C16.5597 14.4996 16.6623 14.2385 16.6623 13.9495C16.6623 13.446 16.4199 13.101 15.935 12.9052L9.15673 10.3972H7.33861V18.7885L13.8652 20.6532L21.3521 17.8561C21.3614 17.3619 21.1749 16.9237 20.8113 16.5508ZM5.47388 10.3972H1.72949V20.6532H5.47388V10.3972Z" fill="white"/>
<path d="M15.27 10.5762V2.57617H15.7916V10.5762H15.27ZM16.7745 5.13555C16.7448 4.86263 16.6197 4.65013 16.3992 4.49805C16.1807 4.34596 15.8966 4.26992 15.5467 4.26992C15.3008 4.26992 15.0898 4.30638 14.9138 4.3793C14.7378 4.45221 14.6031 4.55117 14.5098 4.67617C14.4165 4.80117 14.3688 4.94388 14.3667 5.1043C14.3667 5.23763 14.3975 5.35326 14.4589 5.45117C14.5226 5.54909 14.6084 5.63242 14.7166 5.70117C14.8247 5.76784 14.9445 5.82409 15.076 5.86992C15.2075 5.91576 15.34 5.9543 15.4736 5.98555L16.0843 6.13555C16.3302 6.1918 16.5667 6.26784 16.7936 6.36367C17.0226 6.45951 17.2272 6.58034 17.4074 6.72617C17.5898 6.872 17.734 7.04805 17.84 7.2543C17.946 7.46055 17.999 7.70221 17.999 7.9793C17.999 8.3543 17.9015 8.6845 17.7064 8.96992C17.5113 9.25325 17.2293 9.47513 16.8603 9.63555C16.4935 9.79388 16.0493 9.87305 15.5276 9.87305C15.0209 9.87305 14.5809 9.79596 14.2077 9.6418C13.8366 9.48763 13.5461 9.26263 13.3362 8.9668C13.1284 8.67096 13.016 8.31055 12.999 7.88555H14.16C14.1769 8.10846 14.2469 8.29388 14.3699 8.4418C14.4929 8.58971 14.653 8.70013 14.8502 8.77305C15.0495 8.84596 15.2721 8.88242 15.5181 8.88242C15.7747 8.88242 15.9994 8.84492 16.1924 8.76992C16.3875 8.69284 16.5402 8.58659 16.6504 8.45117C16.7607 8.31367 16.8169 8.15325 16.819 7.96992C16.8169 7.80326 16.767 7.66576 16.6695 7.55742C16.572 7.44701 16.4352 7.35534 16.2592 7.28242C16.0853 7.20742 15.8818 7.14076 15.6485 7.08242L14.9074 6.89492C14.3709 6.75951 13.9469 6.5543 13.6352 6.2793C13.3256 6.00221 13.1708 5.63451 13.1708 5.17617C13.1708 4.79909 13.2747 4.46888 13.4825 4.18555C13.6924 3.90221 13.9776 3.68242 14.3381 3.52617C14.6986 3.36784 15.1067 3.28867 15.5626 3.28867C16.0249 3.28867 16.4299 3.36784 16.7777 3.52617C17.1275 3.68242 17.4021 3.90013 17.6014 4.1793C17.8008 4.45638 17.9036 4.77513 17.91 5.13555H16.7745Z" fill="primary"/>
</svg>
