<svg width="24" height="25" viewBox="0 0 24 25" fill="none" xmlns="http://www.w3.org/2000/svg">
<path fill-rule="evenodd" clip-rule="evenodd" d="M5.125 1.26562C5.67728 1.26562 6.125 1.71334 6.125 2.26562L6.125 4.26562H8.125C8.67729 4.26562 9.125 4.71334 9.125 5.26562C9.125 5.81791 8.67729 6.26562 8.125 6.26562L6.125 6.26562L6.125 8.26562C6.125 8.81791 5.67728 9.26562 5.125 9.26562C4.57272 9.26562 4.125 8.81791 4.125 8.26563L4.125 6.26562L2.125 6.26562C1.57272 6.26562 1.125 5.81791 1.125 5.26562C1.125 4.71334 1.57272 4.26562 2.125 4.26562L4.125 4.26562L4.125 2.26562C4.125 1.71334 4.57272 1.26562 5.125 1.26562Z" fill="white"/>
<path d="M20.5937 6.95121L20.44 6.79743C19.7569 6.11437 19.1436 5.50102 18.6309 5.1213C18.0878 4.71907 17.5002 4.44715 16.7981 4.53076C16.3182 4.58791 15.8807 4.80227 15.5089 5.0547C15.1328 5.31005 14.7826 5.63269 14.4716 5.96234C14.2294 6.21895 14.0018 6.48979 13.7952 6.75277C13.6462 6.94238 13.5718 7.03718 13.5786 7.15086C13.5853 7.26455 13.6729 7.35213 13.8481 7.52728L19.8635 13.5433C20.0387 13.7185 20.1263 13.8061 20.2399 13.8129C20.3536 13.8197 20.4485 13.7452 20.6381 13.5962C20.9011 13.3895 21.1721 13.1618 21.4288 12.9196C21.7585 12.6085 22.0811 12.2584 22.3365 11.8823C22.5889 11.5105 22.8033 11.0729 22.8604 10.5931C22.944 9.89093 22.6721 9.30338 22.2699 8.76026C21.8901 8.24753 21.2768 7.63422 20.5937 6.95121Z" fill="white"/>
<path fill-rule="evenodd" clip-rule="evenodd" d="M18.8318 15.3881L18.8318 15.3881C18.3093 16.1735 18.0977 16.9398 18.0188 17.7451L18.0151 17.783L18.0151 17.7831C17.9523 18.4242 17.8999 18.9592 17.8178 19.3776C17.7341 19.8038 17.5995 20.2294 17.29 20.567C16.9945 20.8894 16.6279 21.06 16.2415 21.1776C15.8795 21.2879 15.4255 21.3721 14.9008 21.4695L7.84171 22.7805C7.22049 22.8959 6.67353 22.9975 6.23548 23.0135C6.00031 23.022 5.75217 23.0082 5.51163 22.9405L11.7129 16.739C12.109 16.9852 12.5487 17.1425 13.0052 17.2166C13.4141 17.2829 13.7994 17.0053 13.8657 16.5964C13.9321 16.1876 13.6545 15.8023 13.2456 15.736C12.8261 15.6679 12.4629 15.4899 12.1821 15.2091C11.9013 14.9283 11.7233 14.5651 11.6552 14.1456C11.5888 13.7367 11.2036 13.4591 10.7947 13.5254C10.3859 13.5918 10.1082 13.9771 10.1746 14.3859C10.2487 14.8424 10.406 15.2821 10.6522 15.6783L4.45057 21.8802C4.38254 21.6393 4.3687 21.3908 4.37728 21.1552C4.39323 20.7171 4.49485 20.1701 4.61027 19.5488L5.92112 12.4894C6.01853 11.9647 6.10281 11.5107 6.21306 11.1486C6.33071 10.7622 6.50125 10.3956 6.8237 10.1001C7.1614 9.79054 7.58699 9.65598 8.01314 9.57234C8.43159 9.49021 8.96664 9.4379 9.60772 9.37521L9.64555 9.37151C10.4509 9.29274 11.2176 9.0813 12.0032 8.55887C12.2285 8.40904 12.3411 8.33412 12.4478 8.34474C12.5544 8.35536 12.6428 8.44378 12.8196 8.62062L18.7701 14.5716C18.9469 14.7485 19.0353 14.8369 19.0459 14.9435C19.0566 15.0502 18.9816 15.1628 18.8318 15.3881Z" fill="white"/>
</svg>
